<svg xmlns="http://www.w3.org/2000/svg" version="1.1" xmlns:xlink="http://www.w3.org/1999/xlink" xmlns:svgjs="http://svgjs.dev/svgjs" width="1440" height="560" preserveAspectRatio="none" viewBox="0 0 1440 560"><g mask="url(&quot;#SvgjsMask1017&quot;)" fill="none"><rect width="1440" height="560" x="0" y="0" fill="rgba(33, 45, 64, 1)"></rect><path d="M 0,125 C 57.6,137.2 172.8,193 288,186 C 403.2,179 460.8,77.6 576,90 C 691.2,102.4 748.8,255.4 864,248 C 979.2,240.6 1036.8,50 1152,53 C 1267.2,56 1382.4,221 1440,263L1440 560L0 560z" fill="rgba(90, 3, 3, 1)"></path><path d="M 0,345 C 96,384.8 288,548.4 480,544 C 672,539.6 768,321.6 960,323 C 1152,324.4 1344,505.4 1440,551L1440 560L0 560z" fill="rgba(54, 65, 86, 1)"></path></g><defs><mask id="SvgjsMask1017"><rect width="1440" height="560" fill="#ffffff"></rect></mask></defs></svg>